<svg width="32" height="32" viewBox="0 0 32 32" fill="none" xmlns="http://www.w3.org/2000/svg">
<path opacity="0.3" d="M23 15.3333C19.3266 15.3333 16.3333 18.3266 16.3333 22C16.3333 25.6733 19.3266 28.6666 23 28.6666C26.6733 28.6666 29.6666 25.6733 29.6666 22C29.6666 18.3266 26.6733 15.3333 23 15.3333ZM22.3333 20.6666V18H23.6666V20.6666H25.6666L23 23.3333L20.3333 20.6666H22.3333ZM26.3333 25.3333H19.6666V24H26.3333V25.3333Z" fill="black"/>
<path fill-rule="evenodd" clip-rule="evenodd" d="M16.1806 25.5C15.6392 24.45 15.3333 23.2599 15.3333 22C15.3333 21.1252 15.4808 20.284 15.7522 19.5H12.75C12.3375 19.5 12 19.1625 12 18.75V16.5H3V23.25C3 24.45 4.05047 25.5 5.25 25.5H16.1806ZM21 7.5H24.75C25.95 7.5 27 8.55 27 9.75V15H26.125C25.17 14.5717 24.1122 14.3333 23 14.3333C21.8878 14.3333 20.83 14.5717 19.8749 15H3V9.75C3 8.55 4.05047 7.5 5.25 7.5H9V5.25C9 4.05047 10.05 3 11.25 3H18.75C19.95 3 21 4.05047 21 5.25V7.5ZM11.25 7.5H18.75V5.25H11.25V7.5Z" fill="black"/>
</svg>
