<svg
        fill="none"
        height="18"
        viewBox="0 0 18 18"
        width="18"
        xmlns="http://www.w3.org/2000/svg"
>
    <path
            clip-rule="evenodd"
            d="M9 2.8125C7.35897 2.8125 5.78516 3.4644 4.62478 4.62478C3.4644 5.78516 2.8125 7.35897 2.8125 9C2.8125 9.81255 2.97254 10.6172 3.2835 11.3679C3.59445 12.1186 4.05021 12.8007 4.62478 13.3752C5.19934 13.9498 5.88144 14.4056 6.63215 14.7165C7.38285 15.0275 8.18745 15.1875 9 15.1875C9.81255 15.1875 10.6172 15.0275 11.3679 14.7165C12.1186 14.4056 12.8007 13.9498 13.3752 13.3752C13.9498 12.8007 14.4056 12.1186 14.7165 11.3679C15.0275 10.6172 15.1875 9.81255 15.1875 9C15.1875 7.35897 14.5356 5.78516 13.3752 4.62478C12.2148 3.4644 10.641 2.8125 9 2.8125ZM3.82928 3.82928C5.20064 2.45792 7.0606 1.6875 9 1.6875C10.9394 1.6875 12.7994 2.45792 14.1707 3.82928C15.5421 5.20064 16.3125 7.0606 16.3125 9C16.3125 9.96029 16.1234 10.9112 15.7559 11.7984C15.3884 12.6856 14.8497 13.4917 14.1707 14.1707C13.4917 14.8497 12.6856 15.3884 11.7984 15.7559C10.9112 16.1234 9.96029 16.3125 9 16.3125C8.03971 16.3125 7.08882 16.1234 6.20163 15.7559C5.31443 15.3884 4.50831 14.8497 3.82928 14.1707C3.15025 13.4917 2.61162 12.6856 2.24413 11.7984C1.87664 10.9112 1.6875 9.96029 1.6875 9C1.6875 7.0606 2.45792 5.20064 3.82928 3.82928ZM10.9611 5.21584C9.87069 4.26159 8.12906 4.26164 7.03876 5.21599C6.80501 5.42061 6.78138 5.77598 6.98599 6.00974C7.19061 6.24349 7.54598 6.26712 7.77974 6.06251C8.44588 5.47941 9.55412 5.47941 10.2203 6.06251L10.2204 6.06266C10.8432 6.6073 10.8432 7.4552 10.2204 7.99984L10.2187 8.00134C10.1079 8.0991 9.98117 8.18175 9.84347 8.2483L9.84296 8.24855C9.23197 8.54461 8.43825 9.16635 8.43825 10.125V10.6875C8.43825 10.9982 8.69009 11.25 9.00075 11.25C9.31141 11.25 9.56325 10.9982 9.56325 10.6875V10.125C9.56325 9.84165 9.82703 9.50639 10.3335 9.26095C10.5553 9.15372 10.7686 9.01622 10.9618 8.84598C12.0963 7.85305 12.0961 6.20848 10.9611 5.21584ZM8.4375 12.9375C8.4375 12.6268 8.68934 12.375 9 12.375H9.006C9.31666 12.375 9.5685 12.6268 9.5685 12.9375V12.9435C9.5685 13.2542 9.31666 13.506 9.006 13.506H9C8.68934 13.506 8.4375 13.2542 8.4375 12.9435V12.9375Z"
            fill="#999DB2"
            fill-rule="evenodd"
    />
</svg>
