<svg fill="none" height="21" viewBox="0 0 32 21" width="32" xmlns="http://www.w3.org/2000/svg">
    <g filter="url(#filter0_i_1114_3722)">
        <rect fill="#E4E4E4" height="21" rx="2" width="32"/>
        <path d="M13.868 12.64H10.22L9.548 14.5H8.396L11.42 6.184H12.68L15.692 14.5H14.54L13.868 12.64ZM13.556 11.752L12.044 7.528L10.532 11.752H13.556ZM18.1019 5.62V14.5H17.0099V5.62H18.1019ZM21.2951 8.824V12.7C21.2951 13.02 21.3631 13.248 21.4991 13.384C21.6351 13.512 21.8711 13.576 22.2071 13.576H23.0111V14.5H22.0271C21.4191 14.5 20.9631 14.36 20.6591 14.08C20.3551 13.8 20.2031 13.34 20.2031 12.7V8.824H19.3511V7.924H20.2031V6.268H21.2951V7.924H23.0111V8.824H21.2951Z" fill="#3F4254"/>
    </g>
    <defs>
        <filter color-interpolation-filters="sRGB" filterUnits="userSpaceOnUse" height="21" id="filter0_i_1114_3722" width="32" x="0" y="0">
            <feFlood flood-opacity="0" result="BackgroundImageFix"/>
            <feBlend in="SourceGraphic" in2="BackgroundImageFix" mode="normal" result="shape"/>
            <feColorMatrix in="SourceAlpha" result="hardAlpha" type="matrix" values="0 0 0 0 0 0 0 0 0 0 0 0 0 0 0 0 0 0 127 0"/>
            <feOffset dy="-2"/>
            <feComposite in2="hardAlpha" k2="-1" k3="1" operator="arithmetic"/>
            <feColorMatrix type="matrix" values="0 0 0 0 0 0 0 0 0 0 0 0 0 0 0 0 0 0 0.25 0"/>
            <feBlend in2="shape" mode="normal" result="effect1_innerShadow_1114_3722"/>
        </filter>
    </defs>
</svg>
