<svg fill="none" height="21" viewBox="0 0 38 21" width="38" xmlns="http://www.w3.org/2000/svg">
    <g filter="url(#filter0_i_1114_3710)">
        <rect fill="#E4E4E4" height="21" rx="2" width="38"/>
        <path d="M8.516 10.312C8.516 9.496 8.7 8.764 9.068 8.116C9.436 7.46 9.936 6.948 10.568 6.58C11.208 6.212 11.916 6.028 12.692 6.028C13.604 6.028 14.4 6.248 15.08 6.688C15.76 7.128 16.256 7.752 16.568 8.56H15.26C15.028 8.056 14.692 7.668 14.252 7.396C13.82 7.124 13.3 6.988 12.692 6.988C12.108 6.988 11.584 7.124 11.12 7.396C10.656 7.668 10.292 8.056 10.028 8.56C9.764 9.056 9.632 9.64 9.632 10.312C9.632 10.976 9.764 11.56 10.028 12.064C10.292 12.56 10.656 12.944 11.12 13.216C11.584 13.488 12.108 13.624 12.692 13.624C13.3 13.624 13.82 13.492 14.252 13.228C14.692 12.956 15.028 12.568 15.26 12.064H16.568C16.256 12.864 15.76 13.484 15.08 13.924C14.4 14.356 13.604 14.572 12.692 14.572C11.916 14.572 11.208 14.392 10.568 14.032C9.936 13.664 9.436 13.156 9.068 12.508C8.7 11.86 8.516 11.128 8.516 10.312ZM19.5255 8.824V12.7C19.5255 13.02 19.5935 13.248 19.7295 13.384C19.8655 13.512 20.1015 13.576 20.4375 13.576H21.2415V14.5H20.2575C19.6495 14.5 19.1935 14.36 18.8895 14.08C18.5855 13.8 18.4335 13.34 18.4335 12.7V8.824H17.5815V7.924H18.4335V6.268H19.5255V7.924H21.2415V8.824H19.5255ZM23.6566 8.992C23.8486 8.616 24.1206 8.324 24.4726 8.116C24.8326 7.908 25.2686 7.804 25.7806 7.804V8.932H25.4926C24.2686 8.932 23.6566 9.596 23.6566 10.924V14.5H22.5646V7.924H23.6566V8.992ZM28.1332 5.62V14.5H27.0412V5.62H28.1332Z" fill="#3F4254"/>
    </g>
    <defs>
        <filter color-interpolation-filters="sRGB" filterUnits="userSpaceOnUse" height="21" id="filter0_i_1114_3710" width="38" x="0" y="0">
            <feFlood flood-opacity="0" result="BackgroundImageFix"/>
            <feBlend in="SourceGraphic" in2="BackgroundImageFix" mode="normal" result="shape"/>
            <feColorMatrix in="SourceAlpha" result="hardAlpha" type="matrix" values="0 0 0 0 0 0 0 0 0 0 0 0 0 0 0 0 0 0 127 0"/>
            <feOffset dy="-2"/>
            <feComposite in2="hardAlpha" k2="-1" k3="1" operator="arithmetic"/>
            <feColorMatrix type="matrix" values="0 0 0 0 0 0 0 0 0 0 0 0 0 0 0 0 0 0 0.25 0"/>
            <feBlend in2="shape" mode="normal" result="effect1_innerShadow_1114_3710"/>
        </filter>
    </defs>
</svg>
