<svg fill="none" height="21" viewBox="0 0 69 21" width="69" xmlns="http://www.w3.org/2000/svg">
    <g filter="url(#filter0_i_1114_3718)">
        <rect fill="#E4E4E4" height="21" rx="2" width="69"/>
        <path d="M23.1875 4.48828H22.1328C22.0554 4.48828 21.9921 4.55156 21.9921 4.62891V13.7344H13.4492V12.4512C13.4492 12.3334 13.3121 12.2666 13.2207 12.3404L10.7263 14.3092C10.7095 14.3223 10.6959 14.3391 10.6866 14.3583C10.6772 14.3775 10.6724 14.3986 10.6724 14.4199C10.6724 14.4413 10.6772 14.4623 10.6866 14.4815C10.6959 14.5007 10.7095 14.5175 10.7263 14.5307L13.2207 16.4994C13.3138 16.5732 13.4492 16.5064 13.4492 16.3887V15.0703H22.2031C22.8236 15.0703 23.3281 14.5658 23.3281 13.9453V4.62891C23.3281 4.55156 23.2648 4.48828 23.1875 4.48828Z" fill="#3F4254"/>
        <path d="M32.016 7.024V9.82H35.064V10.72H32.016V13.6H35.424V14.5H30.924V6.124H35.424V7.024H32.016ZM40.2803 7.804C41.0803 7.804 41.7283 8.048 42.2243 8.536C42.7203 9.016 42.9683 9.712 42.9683 10.624V14.5H41.8883V10.78C41.8883 10.124 41.7243 9.624 41.3963 9.28C41.0683 8.928 40.6203 8.752 40.0523 8.752C39.4763 8.752 39.0163 8.932 38.6723 9.292C38.3363 9.652 38.1683 10.176 38.1683 10.864V14.5H37.0763V7.924H38.1683V8.86C38.3843 8.524 38.6763 8.264 39.0443 8.08C39.4203 7.896 39.8323 7.804 40.2803 7.804ZM46.0841 8.824V12.7C46.0841 13.02 46.1521 13.248 46.2881 13.384C46.4241 13.512 46.6601 13.576 46.9961 13.576H47.8001V14.5H46.8161C46.2081 14.5 45.7521 14.36 45.4481 14.08C45.1441 13.8 44.9921 13.34 44.9921 12.7V8.824H44.1401V7.924H44.9921V6.268H46.0841V7.924H47.8001V8.824H46.0841ZM55.1232 10.96C55.1232 11.168 55.1112 11.388 55.0872 11.62H49.8312C49.8712 12.268 50.0912 12.776 50.4912 13.144C50.8992 13.504 51.3912 13.684 51.9672 13.684C52.4392 13.684 52.8312 13.576 53.1432 13.36C53.4632 13.136 53.6872 12.84 53.8152 12.472H54.9912C54.8152 13.104 54.4632 13.62 53.9352 14.02C53.4072 14.412 52.7512 14.608 51.9672 14.608C51.3432 14.608 50.7832 14.468 50.2872 14.188C49.7992 13.908 49.4152 13.512 49.1352 13C48.8552 12.48 48.7152 11.88 48.7152 11.2C48.7152 10.52 48.8512 9.924 49.1232 9.412C49.3952 8.9 49.7752 8.508 50.2632 8.236C50.7592 7.956 51.3272 7.816 51.9672 7.816C52.5912 7.816 53.1432 7.952 53.6232 8.224C54.1032 8.496 54.4712 8.872 54.7272 9.352C54.9912 9.824 55.1232 10.36 55.1232 10.96ZM53.9952 10.732C53.9952 10.316 53.9032 9.96 53.7192 9.664C53.5352 9.36 53.2832 9.132 52.9632 8.98C52.6512 8.82 52.3032 8.74 51.9192 8.74C51.3672 8.74 50.8952 8.916 50.5032 9.268C50.1192 9.62 49.8992 10.108 49.8432 10.732H53.9952ZM57.6566 8.992C57.8486 8.616 58.1206 8.324 58.4726 8.116C58.8326 7.908 59.2686 7.804 59.7806 7.804V8.932H59.4926C58.2686 8.932 57.6566 9.596 57.6566 10.924V14.5H56.5646V7.924H57.6566V8.992Z" fill="#3F4254"/>
    </g>
    <defs>
        <filter color-interpolation-filters="sRGB" filterUnits="userSpaceOnUse" height="21" id="filter0_i_1114_3718" width="69" x="0" y="0">
            <feFlood flood-opacity="0" result="BackgroundImageFix"/>
            <feBlend in="SourceGraphic" in2="BackgroundImageFix" mode="normal" result="shape"/>
            <feColorMatrix in="SourceAlpha" result="hardAlpha" type="matrix" values="0 0 0 0 0 0 0 0 0 0 0 0 0 0 0 0 0 0 127 0"/>
            <feOffset dy="-2"/>
            <feComposite in2="hardAlpha" k2="-1" k3="1" operator="arithmetic"/>
            <feColorMatrix type="matrix" values="0 0 0 0 0 0 0 0 0 0 0 0 0 0 0 0 0 0 0.25 0"/>
            <feBlend in2="shape" mode="normal" result="effect1_innerShadow_1114_3718"/>
        </filter>
    </defs>
</svg>
