<svg fill="none" height="21" viewBox="0 0 36 21" width="36" xmlns="http://www.w3.org/2000/svg">
    <g filter="url(#filter0_i_1114_3682)">
        <rect fill="#E4E4E4" height="21" rx="2" width="36"/>
        <path d="M10.016 7.024V9.82H13.064V10.72H10.016V13.6H13.424V14.5H8.924V6.124H13.424V7.024H10.016ZM17.4043 14.608C16.9003 14.608 16.4483 14.524 16.0483 14.356C15.6483 14.18 15.3323 13.94 15.1003 13.636C14.8683 13.324 14.7403 12.968 14.7163 12.568H15.8443C15.8763 12.896 16.0283 13.164 16.3003 13.372C16.5803 13.58 16.9443 13.684 17.3923 13.684C17.8083 13.684 18.1363 13.592 18.3763 13.408C18.6163 13.224 18.7363 12.992 18.7363 12.712C18.7363 12.424 18.6083 12.212 18.3523 12.076C18.0963 11.932 17.7003 11.792 17.1643 11.656C16.6763 11.528 16.2763 11.4 15.9643 11.272C15.6603 11.136 15.3963 10.94 15.1723 10.684C14.9563 10.42 14.8483 10.076 14.8483 9.652C14.8483 9.316 14.9483 9.008 15.1483 8.728C15.3483 8.448 15.6323 8.228 16.0003 8.068C16.3683 7.9 16.7883 7.816 17.2603 7.816C17.9883 7.816 18.5763 8 19.0243 8.368C19.4723 8.736 19.7123 9.24 19.7443 9.88H18.6523C18.6283 9.536 18.4883 9.26 18.2323 9.052C17.9843 8.844 17.6483 8.74 17.2243 8.74C16.8323 8.74 16.5203 8.824 16.2883 8.992C16.0563 9.16 15.9403 9.38 15.9403 9.652C15.9403 9.868 16.0083 10.048 16.1443 10.192C16.2883 10.328 16.4643 10.44 16.6723 10.528C16.8883 10.608 17.1843 10.7 17.5603 10.804C18.0323 10.932 18.4163 11.06 18.7123 11.188C19.0083 11.308 19.2603 11.492 19.4683 11.74C19.6843 11.988 19.7963 12.312 19.8043 12.712C19.8043 13.072 19.7043 13.396 19.5043 13.684C19.3043 13.972 19.0203 14.2 18.6523 14.368C18.2923 14.528 17.8763 14.608 17.4043 14.608ZM20.9379 11.2C20.9379 10.52 21.0739 9.928 21.3459 9.424C21.6179 8.912 21.9939 8.516 22.4739 8.236C22.9619 7.956 23.5179 7.816 24.1419 7.816C24.9499 7.816 25.6139 8.012 26.1339 8.404C26.6619 8.796 27.0099 9.34 27.1779 10.036H26.0019C25.8899 9.636 25.6699 9.32 25.3419 9.088C25.0219 8.856 24.6219 8.74 24.1419 8.74C23.5179 8.74 23.0139 8.956 22.6299 9.388C22.2459 9.812 22.0539 10.416 22.0539 11.2C22.0539 11.992 22.2459 12.604 22.6299 13.036C23.0139 13.468 23.5179 13.684 24.1419 13.684C24.6219 13.684 25.0219 13.572 25.3419 13.348C25.6619 13.124 25.8819 12.804 26.0019 12.388H27.1779C27.0019 13.06 26.6499 13.6 26.1219 14.008C25.5939 14.408 24.9339 14.608 24.1419 14.608C23.5179 14.608 22.9619 14.468 22.4739 14.188C21.9939 13.908 21.6179 13.512 21.3459 13C21.0739 12.488 20.9379 11.888 20.9379 11.2Z" fill="#3F4254"/>
    </g>
    <defs>
        <filter color-interpolation-filters="sRGB" filterUnits="userSpaceOnUse" height="21" id="filter0_i_1114_3682" width="36" x="0" y="0">
            <feFlood flood-opacity="0" result="BackgroundImageFix"/>
            <feBlend in="SourceGraphic" in2="BackgroundImageFix" mode="normal" result="shape"/>
            <feColorMatrix in="SourceAlpha" result="hardAlpha" type="matrix" values="0 0 0 0 0 0 0 0 0 0 0 0 0 0 0 0 0 0 127 0"/>
            <feOffset dy="-2"/>
            <feComposite in2="hardAlpha" k2="-1" k3="1" operator="arithmetic"/>
            <feColorMatrix type="matrix" values="0 0 0 0 0 0 0 0 0 0 0 0 0 0 0 0 0 0 0.25 0"/>
            <feBlend in2="shape" mode="normal" result="effect1_innerShadow_1114_3682"/>
        </filter>
    </defs>
</svg>
