<svg fill="none" height="21" viewBox="0 0 21 21" width="21" xmlns="http://www.w3.org/2000/svg">
    <g clip-path="url(#clip0_1114_6708)">
        <path d="M16.3144 -3.85661e-06C16.1421 0.0229649 16.0027 0.149293 15.9617 0.318278C15.9206 0.485621 15.9879 0.662809 16.1306 0.761246C18.1716 2.29523 19.6055 4.57734 20.0288 7.20562C20.0403 7.36312 20.1403 7.50093 20.2863 7.56164C20.4324 7.62234 20.6013 7.59609 20.7211 7.49273C20.8409 7.38937 20.8934 7.22859 20.8556 7.07437C20.3979 4.22625 18.841 1.73906 16.6294 0.0787461C16.5392 0.0114805 16.426 -0.0164101 16.3144 -3.85661e-06ZM10.08 1.26C5.91119 1.26 2.52002 4.65117 2.52002 8.82V13.44C2.52002 17.6088 5.91119 21 10.08 21C14.2488 21 17.64 17.6088 17.64 13.44V8.82C17.64 4.65117 14.2488 1.26 10.08 1.26ZM9.66002 2.12625V10.92H3.36002V8.82C3.36002 5.25656 6.15072 2.34445 9.66002 2.12625ZM3.36002 11.76H16.8V13.44C16.8 17.1445 13.7846 20.16 10.08 20.16C6.37549 20.16 3.36002 17.1445 3.36002 13.44V11.76Z" fill="currentColor"/>
    </g>
    <defs>
        <clipPath id="clip0_1114_6708">
            <rect fill="white" height="21" width="21"/>
        </clipPath>
    </defs>
</svg>
