<svg fill="none" height="21" viewBox="0 0 21 21" width="21" xmlns="http://www.w3.org/2000/svg">
    <g clip-path="url(#clip0_1114_6756)">
        <path d="M4.59375 -0.0131255C4.57571 -0.00984422 4.55766 -0.00492237 4.54125 -4.69387e-07C4.47891 0.0131245 4.42149 0.0393745 4.37063 0.0787495C2.16071 1.73906 0.602112 4.22625 0.144378 7.07437C0.106643 7.22859 0.159143 7.38937 0.278909 7.49273C0.398675 7.59609 0.567659 7.62234 0.713675 7.56164C0.85969 7.50094 0.959768 7.36312 0.971253 7.20563C1.39453 4.57734 2.82844 2.29359 4.86938 0.76125C5.03836 0.65789 5.11219 0.449531 5.04492 0.2625C4.9793 0.0754685 4.79063 -0.0393755 4.59375 -0.0131255ZM10.92 1.26C6.75117 1.26 3.36 4.65117 3.36 8.82V13.44C3.36 17.6088 6.75117 21 10.92 21C15.0888 21 18.48 17.6088 18.48 13.44V8.82C18.48 4.65117 15.0888 1.26 10.92 1.26ZM5.34188 1.5225C5.25821 1.53398 5.1811 1.57172 5.11875 1.6275C3.45352 2.96953 2.27227 4.87758 1.85063 7.06125C1.80633 7.2893 1.95727 7.50914 2.18532 7.55344C2.41336 7.59773 2.63321 7.4468 2.6775 7.21875C3.05977 5.23523 4.12946 3.50437 5.64375 2.28375C5.79469 2.17547 5.85703 1.98023 5.79633 1.80469C5.73563 1.62914 5.56664 1.5143 5.38125 1.5225C5.36813 1.5225 5.355 1.5225 5.34188 1.5225ZM11.34 2.12625C14.8509 2.34445 17.64 5.25656 17.64 8.82V10.92H11.34V2.12625ZM4.2 11.76H17.64V13.44C17.64 17.1445 14.6245 20.16 10.92 20.16C7.21547 20.16 4.2 17.1445 4.2 13.44V11.76Z" fill="currentColor"/>
    </g>
    <defs>
        <clipPath id="clip0_1114_6756">
            <rect fill="white" height="21" width="21"/>
        </clipPath>
    </defs>
</svg>
