<svg fill="none" height="21" viewBox="0 0 42 21" width="42" xmlns="http://www.w3.org/2000/svg">
    <g filter="url(#filter0_i_1114_8603)">
        <rect fill="#E4E4E4" height="21" rx="2" width="42"/>
        <path d="M11.576 14.584C11.024 14.584 10.528 14.488 10.088 14.296C9.656 14.096 9.316 13.824 9.068 13.48C8.82 13.128 8.692 12.724 8.684 12.268H9.848C9.888 12.66 10.048 12.992 10.328 13.264C10.616 13.528 11.032 13.66 11.576 13.66C12.096 13.66 12.504 13.532 12.8 13.276C13.104 13.012 13.256 12.676 13.256 12.268C13.256 11.948 13.168 11.688 12.992 11.488C12.816 11.288 12.596 11.136 12.332 11.032C12.068 10.928 11.712 10.816 11.264 10.696C10.712 10.552 10.268 10.408 9.932 10.264C9.604 10.12 9.32 9.896 9.08 9.592C8.848 9.28 8.732 8.864 8.732 8.344C8.732 7.888 8.848 7.484 9.08 7.132C9.312 6.78 9.636 6.508 10.052 6.316C10.476 6.124 10.96 6.028 11.504 6.028C12.288 6.028 12.928 6.224 13.424 6.616C13.928 7.008 14.212 7.528 14.276 8.176H13.076C13.036 7.856 12.868 7.576 12.572 7.336C12.276 7.088 11.884 6.964 11.396 6.964C10.94 6.964 10.568 7.084 10.28 7.324C9.992 7.556 9.848 7.884 9.848 8.308C9.848 8.612 9.932 8.86 10.1 9.052C10.276 9.244 10.488 9.392 10.736 9.496C10.992 9.592 11.348 9.704 11.804 9.832C12.356 9.984 12.8 10.136 13.136 10.288C13.472 10.432 13.76 10.66 14 10.972C14.24 11.276 14.36 11.692 14.36 12.22C14.36 12.628 14.252 13.012 14.036 13.372C13.82 13.732 13.5 14.024 13.076 14.248C12.652 14.472 12.152 14.584 11.576 14.584ZM19.231 7.804C19.727 7.804 20.175 7.912 20.575 8.128C20.975 8.336 21.287 8.652 21.511 9.076C21.743 9.5 21.859 10.016 21.859 10.624V14.5H20.779V10.78C20.779 10.124 20.615 9.624 20.287 9.28C19.959 8.928 19.511 8.752 18.943 8.752C18.367 8.752 17.907 8.932 17.563 9.292C17.227 9.652 17.059 10.176 17.059 10.864V14.5H15.967V5.62H17.059V8.86C17.275 8.524 17.571 8.264 17.947 8.08C18.331 7.896 18.759 7.804 19.231 7.804ZM24.2068 6.856C23.9988 6.856 23.8228 6.784 23.6788 6.64C23.5348 6.496 23.4628 6.32 23.4628 6.112C23.4628 5.904 23.5348 5.728 23.6788 5.584C23.8228 5.44 23.9988 5.368 24.2068 5.368C24.4068 5.368 24.5748 5.44 24.7108 5.584C24.8548 5.728 24.9268 5.904 24.9268 6.112C24.9268 6.32 24.8548 6.496 24.7108 6.64C24.5748 6.784 24.4068 6.856 24.2068 6.856ZM24.7348 7.924V14.5H23.6428V7.924H24.7348ZM29.2719 8.824H27.8919V14.5H26.7999V8.824H25.9479V7.924H26.7999V7.456C26.7999 6.72 26.9879 6.184 27.3639 5.848C27.7479 5.504 28.3599 5.332 29.1999 5.332V6.244C28.7199 6.244 28.3799 6.34 28.1799 6.532C27.9879 6.716 27.8919 7.024 27.8919 7.456V7.924H29.2719V8.824ZM31.8771 8.824V12.7C31.8771 13.02 31.9451 13.248 32.0811 13.384C32.2171 13.512 32.4531 13.576 32.7891 13.576H33.5931V14.5H32.6091C32.0011 14.5 31.5451 14.36 31.2411 14.08C30.9371 13.8 30.7851 13.34 30.7851 12.7V8.824H29.9331V7.924H30.7851V6.268H31.8771V7.924H33.5931V8.824H31.8771Z" fill="#3F4254"/>
    </g>
    <defs>
        <filter color-interpolation-filters="sRGB" filterUnits="userSpaceOnUse" height="21" id="filter0_i_1114_8603" width="42" x="0" y="0">
            <feFlood flood-opacity="0" result="BackgroundImageFix"/>
            <feBlend in="SourceGraphic" in2="BackgroundImageFix" mode="normal" result="shape"/>
            <feColorMatrix in="SourceAlpha" result="hardAlpha" type="matrix" values="0 0 0 0 0 0 0 0 0 0 0 0 0 0 0 0 0 0 127 0"/>
            <feOffset dy="-2"/>
            <feComposite in2="hardAlpha" k2="-1" k3="1" operator="arithmetic"/>
            <feColorMatrix type="matrix" values="0 0 0 0 0 0 0 0 0 0 0 0 0 0 0 0 0 0 0.25 0"/>
            <feBlend in2="shape" mode="normal" result="effect1_innerShadow_1114_8603"/>
        </filter>
    </defs>
</svg>
