<svg xmlns="http://www.w3.org/2000/svg" height="24" viewBox="0 0 22 8"
    width="24">
    <g transform="translate(-103.248468 -143.810218)">
        <g fill="currentColor">
            <path
                d="m107.46582 144.97248h1.31657c.36124 0 .81879.0861.81879.69991 0 .61383-.65405.86395-1.13947.86395h-.99589zm0 2.39783h.75001c1.23295 0 1.8609.26952 1.8609.99095 0 .63924-.50377.90946-1.29434.90946h-1.20015l-1.37231.96097v.00035l2.56328-.0007c1.53494 0 2.56823-.5528 2.56823-1.83162 0-1.11549-.9144-1.55364-1.73073-1.55364.56409 0 1.23049-.50553 1.23049-1.36278 0-.85654-.78352-1.47214-1.67746-1.47214h-2.6162-.56727l.22966.50976v5.2631l1.25589-.87948z" />
            <path
                d="m113.40844 144.97248h.85549c.35277 0 2.153.0893 2.153 2.14912 0 2.35021-2.153 2.14842-2.153 2.14842l-.73872.0007-1.37301.96097v.00035h2.4645c1.53529 0 3.10868-.94438 3.10868-3.11044 0-1.92087-1.37407-3.11044-3.10868-3.11044h-2.69381l.22931.50976v5.2631l1.25624-.87948z" />
            <path
                d="m119.61454 147.12139c0-1.75895 1.21179-2.25319 1.99672-2.25319s1.99708.49424 1.99708 2.25319-1.21215 2.25319-1.99708 2.25319-1.99672-.49424-1.99672-2.25319m-1.30881 0c0 2.48179 2.0059 3.17923 3.30553 3.17923 1.29964 0 3.30553-.69744 3.30553-3.17923s-2.00589-3.17888-3.30553-3.17888c-1.29963 0-3.30553.69709-3.30553 3.17888" />
        </g>
        <path d="m103.38087 144.0113v7.75441l1.22696-.85937v-6.89504z" fill="currentColor" />
        <path d="m104.83703 151.19308-1.45627 1.01917h21.46724v-1.01917z" fill="currentColor" />
    </g>
</svg>
